<?xml version="1.0" encoding="UTF-8" standalone="no"?>
<!DOCTYPE svg PUBLIC "-//W3C//DTD SVG 1.1//EN" "http://www.w3.org/Graphics/SVG/1.1/DTD/svg11.dtd">
<svg width="100%" height="100%" viewBox="0 0 500 153" version="1.1" xmlns="http://www.w3.org/2000/svg" xmlns:xlink="http://www.w3.org/1999/xlink" xml:space="preserve" xmlns:serif="http://www.serif.com/" style="fill-rule:evenodd;clip-rule:evenodd;stroke-linejoin:round;stroke-miterlimit:2;">
    <g>
        <path d="M149.74,0L149.74,39.85L113.75,76.66L76.25,39.15L38.7,76.7L76.86,114.86L39.85,152.95L0,152.95L0,58.48L58.48,0L149.74,0Z" style="fill:rgb(109,215,8);fill-rule:nonzero;"/>
        <path d="M76.86,114.78L113.75,76.66L149.74,114.72L149.74,152.95L113.66,152.95L76.86,114.78Z" style="fill:rgb(109,215,8);fill-rule:nonzero;"/>
    </g>
    <g>
        <path d="M193.44,38.56L193.44,65.55L204.15,65.55L204.15,36.79C204.15,36.01 204.46,35.25 205.01,34.7L205.85,33.86C206.4,33.31 207.16,32.99 207.94,32.99L220.74,32.99L220.74,21.85L210.15,21.85L193.44,38.56Z" style="fill:white;fill-rule:nonzero;"/>
        <path d="M483.15,21.85L461.73,21.85L445.02,38.56L445.02,65.55L455.73,65.55L455.73,36.79C455.73,36 456.04,35.25 456.6,34.7L457.44,33.86C458,33.3 458.75,32.99 459.53,32.99L485.35,32.99C486.13,32.99 486.89,33.3 487.44,33.86L487.84,34.26C488.4,34.82 488.71,35.58 488.71,36.37L488.57,65.55L499.99,65.55L499.99,38.7L483.14,21.85L483.15,21.85Z" style="fill:white;fill-rule:nonzero;"/>
        <path d="M397.47,21.85L380.76,38.56L380.76,65.55L391.47,65.55L391.47,57.54L424.35,57.54L424.31,65.55L435.73,65.55L435.73,38.7L418.88,21.85L397.46,21.85L397.47,21.85ZM423.18,33.86L423.58,34.26C424.14,34.82 424.45,35.58 424.45,36.37L424.4,47.26L391.47,47.26L391.47,36.79C391.47,36 391.78,35.25 392.34,34.7L393.18,33.86C393.74,33.3 394.49,32.99 395.27,32.99L421.09,32.99C421.87,32.99 422.63,33.3 423.18,33.86Z" style="fill:white;fill-rule:nonzero;"/>
        <path d="M274.22,50.61C274.22,51.39 273.91,52.15 273.35,52.7L272.51,53.54C271.95,54.1 271.2,54.41 270.42,54.41L244.6,54.41C243.81,54.41 243.06,54.1 242.51,53.54L242.11,53.14C241.55,52.58 241.24,51.82 241.24,51.03L241.38,21.85L229.96,21.85L229.96,48.7L246.81,65.55L268.23,65.55L284.94,48.84L284.94,21.85L274.23,21.85L274.23,50.61L274.22,50.61Z" style="fill:white;fill-rule:nonzero;"/>
        <path d="M343.79,21.85L332.95,33.26L321.23,21.85L310.92,21.85L294.14,38.32L294.36,65.55L305.21,65.55L305.21,36.51C305.21,35.72 305.53,34.96 306.09,34.39L306.91,33.57C307.47,33.01 308.23,32.69 309.03,32.69L323.97,32.69C324.76,32.69 325.52,33.01 326.09,33.57L326.76,34.24C327.32,34.8 327.64,35.56 327.64,36.36L327.64,65.54L338.35,65.54L338.35,36.78C338.35,35.99 338.67,35.23 339.23,34.66L340.18,33.71C340.74,33.15 341.5,32.83 342.3,32.83L356.54,32.83C357.33,32.83 358.09,33.15 358.66,33.71L359.55,34.6C360.11,35.16 360.43,35.92 360.43,36.72L360.43,65.54L371.49,65.54L371.49,38.69L355.21,21.84L343.81,21.84L343.79,21.85Z" style="fill:white;fill-rule:nonzero;"/>
    </g>
    <g>
        <path d="M489.31,87.4L489.31,116.16C489.31,116.94 489,117.7 488.45,118.25L487.61,119.09C487.06,119.64 486.3,119.96 485.52,119.96L472.75,119.96L472.75,131.1L483.32,131.1L499.99,114.39L499.99,87.4L489.3,87.4L489.31,87.4Z" style="fill:white;fill-rule:nonzero;"/>
        <path d="M422.03,95.24L405.36,111.95L405.36,119.96L271.97,119.96C271.19,119.96 270.44,119.65 269.88,119.09L269.04,118.25C268.49,117.7 268.18,116.94 268.18,116.16L268.18,87.4L257.49,87.4L257.49,114.39L274.16,131.1L460.21,131.1L460.21,112.09L443.4,95.24L422.03,95.24ZM447.68,107.24L448.08,107.65C448.64,108.21 448.95,108.96 448.95,109.76L448.9,120.09L416.04,120.09L416.04,110.17C416.04,109.39 416.35,108.63 416.9,108.08L417.74,107.24C418.29,106.69 419.05,106.38 419.83,106.38L445.6,106.38C446.38,106.38 447.13,106.69 447.69,107.24L447.68,107.24Z" style="fill:white;fill-rule:nonzero;"/>
        <path d="M237.62,116.16C237.62,116.94 237.31,117.7 236.76,118.25L235.93,119.09C235.38,119.65 234.63,119.96 233.84,119.96L208.07,119.96C207.29,119.96 206.54,119.65 205.98,119.09L205.58,118.69C205.02,118.13 204.71,117.37 204.72,116.58L204.86,100.92L193.46,100.92L193.46,114.24L210.27,131.09L231.64,131.09L248.31,114.38L248.31,100.92L237.62,100.92L237.62,116.16Z" style="fill:white;fill-rule:nonzero;"/>
        <rect x="218.06" y="90.28" width="10.62" height="10.65" style="fill:white;"/>
    </g>
</svg>
